# xmcd
#
# Track frame offsets: 
#        150
#        20835
#        45557
#        65595
#        94266
#        128586
#        149421
#        177023
#        198965
#        228126
#
# Disc length: 3423 seconds
#
# Revision: 0
# Processed by: cddbd v1.5.2PL0 Copyright (c) Steve Scherf et al.
# Submitted via: ExactAudioCopyFreeDBPlugin 1.0
#
DISCID=840d5d0a
DTITLE=Thu Hien - Co hang nuoc
DYEAR=1900
DGENRE=
TTITLE0=Ngoi ca que huong nime no
TTITLE1=Tuong nhu Hue trong long
TTITLE2=Nho ve ben xua
TTITLE3=Trang khuyet
TTITLE4=Hoa xoan dem hoi
TTITLE5=TO hong
TTITLE6=Neo dau ben que
TTITLE7=Nghe em hat con duyen
TTITLE8=Nguoi em vy da
TTITLE9=Co hang nuoc
EXTD=
EXTT0=
EXTT1=
EXTT2=
EXTT3=
EXTT4=
EXTT5=
EXTT6=
EXTT7=
EXTT8=
EXTT9=
PLAYORDER=
